<svg xmlns="http://www.w3.org/2000/svg" fill="none" viewBox="0 0 24 24" id="Arangodb--Streamline-Svg-Logos" height="24" width="24">
  <desc>
    Arangodb Streamline Icon: https://streamlinehq.com
  </desc>
  <path fill="#577138" d="M22.269 11.90595h0.53985c0.138525 0 0.239875 0.035275 0.3042 0.105775 0.06435 0.069275 0.0965 0.170075 0.0965 0.302375 0 0.12245 -0.03775 0.215175 -0.1132 0.278225 -0.07545 0.061825 -0.184825 0.0928 -0.32835 0.0928h-0.499125v-0.779175h0.000125Zm0 -1.089h0.37105c0.155875 0 0.272725 0.029675 0.350675 0.08905 0.07915 0.05935 0.118725 0.1514 0.118725 0.276375 0 0.1138 -0.039025 0.200425 -0.11695 0.2597 -0.077925 0.05935 -0.189175 0.089025 -0.333975 0.089025h-0.3896v-0.71415h0.000075Zm-2.5041 0h0.358125c0.194225 0 0.346325 0.0655 0.45645 0.196625 0.11005 0.1311 0.165 0.3011 0.165 0.5101v0.45095c0 0.2115 -0.05495 0.3827 -0.165 0.513875 -0.1101 0.1311 -0.262225 0.196625 -0.45645 0.196625h-0.358125v-1.868175Zm1.675475 -0.4174v0.326525l0.2875 0.0556v1.938125l-0.2875 0.055725v0.3247h1.328325c0.3129 0 0.55475 -0.06615 0.725375 -0.19845 0.17065 -0.133575 0.2559 -0.329625 0.2559 -0.588175 0 -0.149725 -0.040775 -0.28145 -0.1224 -0.3952 -0.0804 -0.113775 -0.20155 -0.18805 -0.363625 -0.2226 0.126175 -0.0495 0.22205 -0.12305 0.2875 -0.220775 0.0668 -0.098975 0.100225 -0.21095 0.100225 -0.3358 0 -0.2462 -0.089025 -0.431025 -0.267125 -0.55475 -0.178075 -0.1237 -0.4261 -0.185525 -0.743925 -0.185525h-1.20025v0.0006Zm-2.5041 0v0.326525l0.2875 0.0556v1.938125l-0.2875 0.055725v0.3247h1.215125c0.330175 0 0.60235 -0.10455 0.81625 -0.313625 0.214025 -0.210225 0.3209 -0.481 0.3209 -0.81245v-0.447175c0 -0.330175 -0.107 -0.600525 -0.3209 -0.810775 -0.214025 -0.2115 -0.486075 -0.31725 -0.81625 -0.31725h-1.215125v0.0006Z" stroke-width="0.25"></path>
  <path fill="#a3b34f" d="M10.96345 12.214875h0.276375v0.33145c-0.037075 0.053175 -0.089025 0.0977 -0.155875 0.133575 -0.0668 0.034625 -0.141025 0.05195 -0.222625 0.05195 -0.077925 0 -0.139125 -0.01925 -0.1837 -0.057575 -0.043275 -0.038375 -0.065 -0.0915 -0.065 -0.15955 0 -0.07545 0.029675 -0.165025 0.08905 -0.21825 0.05935 -0.054425 0.146625 -0.081625 0.261625 -0.081625m4.5293 -0.7445c0.0804 0 0.149 0.0167 0.2059 0.050075 0.0581 0.033375 0.104475 0.0804 0.139075 0.141v0.871875c-0.0346 0.05815 -0.080975 0.10265 -0.139075 0.133575 -0.0569 0.0297 -0.126825 0.044525 -0.2097 0.044525 -0.133575 0 -0.23005 -0.05 -0.28945 -0.150125 -0.05935 -0.10145 -0.089025 -0.240025 -0.089025 -0.415575v-0.039c0 -0.189175 0.0303 -0.342675 0.0909 -0.460075 0.06185 -0.1175 0.159 -0.176275 0.2913 -0.176275m2.2204 -0.00375c0.141 0 0.244225 0.05625 0.3098 0.1688 0.065575 0.112525 0.09835 0.258 0.09835 0.436075v0.038875c0 0.181875 -0.0328 0.32835 -0.09835 0.439725 -0.0643 0.111325 -0.166425 0.167 -0.30615 0.167 -0.14355 0 -0.247325 -0.05505 -0.31165 -0.165175 -0.0643 -0.1113 -0.0965 -0.25855 -0.0965 -0.44155v-0.038875c0 -0.178075 0.0322 -0.323575 0.0965 -0.436075 0.0643 -0.112575 0.167 -0.1688 0.308 -0.1688Zm0 -0.4174c-0.29565 0 -0.5275 0.0959 -0.69575 0.287625 -0.167 0.19045 -0.250425 0.435375 -0.250425 0.73465v0.038875c0 0.301825 0.083475 0.548025 0.250425 0.73845 0.16825 0.189325 0.401375 0.28385 0.6994 0.28385 0.294375 0 0.525125 -0.09465 0.69195 -0.28385 0.16825 -0.190425 0.25225 -0.436625 0.25225 -0.73845v-0.038875c0 -0.30055 -0.0841 -0.546025 -0.25225 -0.736475 -0.166975 -0.19045 -0.39885 -0.2858 -0.69575 -0.2858m-4.241375 0c-0.121225 0 -0.23075 0.0285 -0.32835 0.085375 -0.0977 0.0569 -0.179925 0.1367 -0.246625 0.239325l-0.02415 -0.287625h-0.7921v0.326525l0.2875 0.055725v1.24475l-0.259675 0.0557v0.3247h1.0203v-0.3247l-0.2188 -0.0557v-1.076075c0.038325 -0.0532 0.085975 -0.09395 0.142825 -0.1224 0.056875 -0.0297 0.1212 -0.04455 0.192975 -0.04455 0.110075 0 0.192275 0.028425 0.246625 0.085325 0.054425 0.05565 0.081625 0.150975 0.081625 0.2858v0.87185l-0.231875 0.055725v0.3247l1.0352 0v-0.3247l-0.259675 -0.055725v-0.873675c0 -0.27205 -0.0569 -0.4719 -0.17065 -0.599275 -0.11375 -0.1274 -0.272025 -0.19115 -0.474975 -0.19115m-2.526575 0c-0.13115 0 -0.2535 0.018325 -0.3678 0.052925 -0.054225 0.0143 -0.111125 0.032725 -0.166575 0.0573 -0.2129 0.0943 -0.287775 0.173575 -0.287775 0.173575l0.2566 0.339325s0.0818 -0.088325 0.3139 -0.18735c0.06795 -0.028725 0.15195 -0.040275 0.216125 -0.040575 0.10885 0 0.19115 0.026575 0.246775 0.07975 0.05565 0.053175 0.0835 0.128025 0.0835 0.224425v0.17135h-0.2764c-0.291825 0 -0.513175 0.07665 -0.66415 0.17935 -0.150825 0.102675 -0.2264 0.248025 -0.2264 0.435925 0 0.184275 0.05755 0.330175 0.1726 0.43775 0.116275 0.1064 0.27275 0.15955 0.469375 0.15955 0.118725 0 0.22385 -0.022925 0.3153 -0.06865 0.09275 -0.045775 0.1712 -0.1058 0.235525 -0.18005 0.006175 0.035875 0.0149 0.0718 0.026025 0.10765 0.011125 0.03465 0.02415 0.068625 0.038975 0.102025h0.6251v-0.3247l-0.165 -0.02225c-0.003725 -0.024725 -0.0062 -0.05075 -0.007425 -0.077975v-0.916525c0 -0.225125 -0.07795 -0.398275 -0.23385 -0.5195 -0.154625 -0.12245 -0.35615 -0.1837 -0.604725 -0.1837m-1.189275 0c-0.097725 0 -0.1837 0.02915 -0.25785 0.08725 -0.074225 0.058125 -0.134875 0.139125 -0.181875 0.242975l-0.024175 -0.2931h-0.7921v0.326525l0.2875 0.0557v1.24475l-0.259675 0.055725v0.3247h1.061175v-0.3247l-0.259675 -0.055725v-0.9758c0.0272 -0.056875 0.0668 -0.10085 0.118725 -0.131775 0.05195 -0.030925 0.11755 -0.046325 0.196775 -0.046325l0.2226 0.005575 0.057475 -0.493525c-0.021025 -0.006175 -0.0476 -0.011125 -0.07975 -0.01485 -0.030925 -0.00495 -0.0606 -0.0074 -0.08905 -0.0074m6.159825 -0.00675 -0.045125 0.2962c-0.0606 -0.09275 -0.1336 -0.1639 -0.21895 -0.213325 -0.0853 -0.0507 -0.18425 -0.076075 -0.29675 -0.076075 -0.248575 0 -0.4421 0.0971 -0.580575 0.291275 -0.1373 0.19425 -0.20605 0.449575 -0.20605 0.766275v0.038975c0 0.295625 0.068725 0.53425 0.20605 0.716125 0.1385 0.1806 0.330875 0.2709 0.576925 0.2709 0.1039 0 0.19605 -0.019775 0.2764 -0.05935 0.0804 -0.0396 0.150275 -0.0971 0.209525 -0.1726v0.131675c0 0.143525 -0.032675 0.25545 -0.098225 0.3358 -0.06555 0.080375 -0.16445 0.120625 -0.2969 0.120625 -0.096475 0 -0.18805 -0.011175 -0.274575 -0.03345 -0.08655 -0.021025 -0.17315 -0.05005 -0.259675 -0.087175l-0.100225 0.380325c0.096475 0.048225 0.201675 0.085875 0.31545 0.1131 0.113775 0.02845 0.221325 0.04275 0.322725 0.04275 0.290575 0 0.51895 -0.07915 0.684675 -0.237475 0.166975 -0.157025 0.2504 -0.367975 0.2504 -0.6327v-0.34675l0.000425 0.001275v-1.264125l0.287625 -0.0557V11.042h-0.75315Zm-8.916725 -0.0285h0.0112l0.2476 0.7744h-0.5066l0.2479 -0.7744h-0.0001Zm-0.26895 -0.621475 -0.821875 2.348225 -0.19295 0.027875v0.324725h0.920175v-0.324725l-0.18735 -0.033425 0.175425 -0.5483h0.75865l0.179075 0.5483 -0.18735 0.033425v0.324725h0.920175v-0.324725l-0.19295 -0.027875 -0.816275 -2.348225h-0.55475Z" stroke-width="0.25"></path>
  <path fill="#577138" d="M4.929525 11.743625c-0.044025 -0.14625 -0.066025 -0.219375 -0.097925 -0.29715 -0.061475 -0.150425 -0.1397 -0.2727 -0.2569 -0.42425 -0.274275 -0.3541 -0.411375 -0.53145 -0.6351 -0.672775 -0.485425 -0.306875 -0.996275 -0.252575 -1.054525 -0.245525 -0.17435 0.020975 -0.557845 0.0975 -0.8865025 0.4146 -0.1861825 0.179875 -0.3031925 0.437775 -0.3579475 0.569425 -0.0605475 1.049375 0.9689 1.469775 1.2113 1.645525 0.07785 0.0371 0.257 0.11595 0.402375 0.191025 0.335725 0.173275 0.56845 0.209125 0.688525 0.230125 0.261625 0.045875 0.668575 -0.057725 0.8617 -0.274225 0.185075 -0.207475 0.23895 -0.48735 0.194825 -0.736825 -0.0134 -0.0767 -0.0136 -0.2131 -0.069975 -0.400425l0.00015 0.000475Z" stroke-width="0.25"></path>
  <path fill="#a3b34f" d="M4.7816 11.63095c-0.070125 -0.18705 -0.1523 -0.311175 -0.24985 -0.458375 -0.119425 -0.1803 -0.226175 -0.3032 -0.3119 -0.4011 -0.1828 -0.2087 -0.274275 -0.313075 -0.3985 -0.38885 -0.214425 -0.13085 -0.421675 -0.154475 -0.5395 -0.166775 -0.27805 -0.028825 -0.490575 0.030125 -0.5939 0.059775 -0.106275 0.030625 -0.3169025 0.0934 -0.5369175 0.266075 -0.1992525 0.156475 -0.32183 0.392075 -0.3885275 0.5189 -0.061225 0.11435 0.315425 1.032 1.185545 1.5744 0.044525 0.023025 0.168475 0.0796 0.245025 0.118325 0.0249 0.012625 0.0478 0.0239 0.0692 0.034275 0.034575 0.01585 0.0668 0.031 0.09715 0.0455 0.097725 0.044125 0.15825 0.06655 0.238325 0.108475 0.277475 0.145075 0.5704 0.1037 0.613875 0.09695 0.057575 -0.00885 0.45805 -0.070825 0.623825 -0.3895 0.08745 -0.16805 0.072225 -0.3354 0.051425 -0.5646 -0.005875 -0.065 -0.0257 -0.2408 -0.1056 -0.453875" stroke-width="0.25"></path>
  <path fill="#dde072" d="M3.438075 12.7543c0.29165 0.111625 0.387575 0.16995 0.512475 0.185175 0.041025 0.004925 0.432625 0.02955 0.662125 -0.1873 0.1709 -0.161325 0.1791 -0.324475 0.18895 -0.4014 0.034075 -0.26485 -0.04125 -0.604525 -0.129225 -0.771275 -0.1155 -0.21905 -0.14535 -0.265075 -0.455175 -0.67565 -0.22945 -0.303675 -0.344425 -0.359875 -0.464175 -0.43875 -0.2058 -0.134575 -0.443875 -0.137625 -0.605475 -0.1443 -0.118875 -0.00485 -0.341525 0.038725 -0.55495 0.113525 -0.33348 0.117275 -0.5282275 0.31375 -0.6650325 0.591975 -0.15187 0.320825 0.6161075 1.36645 1.1501325 1.580175" stroke-width="0.25"></path>
  <path fill="#a3b34f" d="M3.53775 12.126675c0.18595 -0.0325 0.30975 -0.223325 0.34765 -0.3779 0.053175 -0.218625 -0.056825 -0.401075 -0.130125 -0.52275 -0.069175 -0.1145 -0.1908 -0.274725 -0.41105 -0.364075 -0.202775 -0.0824 -0.3602 0.017575 -0.4336 0.058425 -0.3235 0.47835 -0.0729 0.96375 0.403025 1.20615 0.06005 0.005925 0.17685 0.0084 0.224 0.0002" stroke-width="0.25"></path>
  <path fill="#577138" d="M2.9992 12.57745c0.081625 -0.09745 0.23855 -0.29955 0.302025 -0.425225 0.00415 -0.008175 0.008275 -0.01685 0.012425 -0.02585 0.068475 -0.1488 0.136375 -0.40625 0.14285 -0.60905 0.0058 -0.1816 -0.0563 -0.30435 -0.0563 -0.30435 -0.06335 -0.16515 -0.245525 -0.2217 -0.325425 -0.2523 -0.0656 -0.02375 -0.124375 -0.035875 -0.184025 -0.0427 -0.117475 -0.01055 -0.280375 0.002025 -0.5620375 0.04335 -0.2790175 0.039075 -0.5575225 0.09235 -0.8140725 0.154125 -0.3110475 0.0758 -0.4825225 0.11755 -0.680165 0.2132 -0.2282575 0.1104 -0.443895 0.2147 -0.537245 0.443875 -0.057103 0.1404 -0.052146 0.281725 -0.0379175 0.375675 0 0 0.0615775 0.614475 0.4844525 0.9277 0.354085 0.2626 0.8762 0.35955 1.26537 0.2532 0.3069275 -0.058375 0.59969 -0.34605 0.84304 -0.597775 0.0497 -0.050325 0.1096 -0.109425 0.1471 -0.154075l-0.000075 0.0002Z" stroke-width="0.25"></path>
  <path fill="#a3b34f" d="M2.613875 12.474275c-0.2861325 0.168 -0.7059175 0.395925 -1.23125 0.390125 -0.01692 -0.000175 -0.03396 -0.0006 -0.0511175 -0.0013 -0.1761725 -0.0071 -0.6441125 -0.02595 -0.88489 -0.33895 -0.0664075 -0.086475 -0.1056475 -0.182025 -0.1269225 -0.247l-0.0005775 -0.0014c-0.012875 -0.0396 -0.017595 -0.0629 -0.0177425 -0.063725 -0.003645 -0.016875 -0.006645 -0.033375 -0.009215 -0.050475l-0.00033 -0.00115c-0.0000325 -0.0002 -0.000065 -0.000375 -0.000095 -0.00055l-0.000065 -0.000275c-0.01352 -0.089775 -0.018155 -0.2244 0.035955 -0.3573 0.088585 -0.217325 0.2889975 -0.314275 0.52115 -0.426525 0.19452 -0.094075 0.3647075 -0.13555 0.673405 -0.2108 0.03956 -0.009575 0.0776075 -0.018675 0.114305 -0.0271 0.0414925 -0.0094 0.0813425 -0.0183 0.1195825 -0.0264 0.0749375 -0.015875 0.14656 -0.029925 0.21905 -0.042925l0.0003625 -0.000225c0.1330075 -0.023675 0.249695 -0.041075 0.3579475 -0.056875 0.2789975 -0.040925 0.4396975 -0.053475 0.5542975 -0.04315 0.062875 0.00555 0.11525 0.017725 0.17515 0.04065 0.081825 0.03135 0.234125 0.08965 0.3077 0.236275 0.02215 0.0442 0.03525 0.093175 0.039025 0.145775 0.000425 0.005075 0.000725 0.01035 0.000875 0.015575 0.0045 0.13215 -0.04995 0.262025 -0.079225 0.331875 -0.164375 0.391425 -0.46995 0.590375 -0.7175 0.735875" stroke-width="0.25"></path>
  <path fill="#dde072" d="M2.43368 12.49355c0.27242 -0.1402 0.49347 -0.30115 0.60742 -0.4265 0.189275 -0.2083 0.266425 -0.420075 0.283125 -0.5923 0.01875 -0.192975 -0.1026 -0.2651 -0.143775 -0.3002 -0.153225 -0.130775 -0.3615 -0.128675 -0.550775 -0.129375 -0.086 -0.000275 -0.2094175 0.0063 -0.587775 0.088725 -0.3009075 0.0686 -0.3624525 0.0835 -0.726195 0.1829 -0.242485 0.0675 -0.3791925 0.11295 -0.49089 0.1831 -0.1561525 0.09805 -0.350545 0.2201 -0.399795 0.455475 -0.0611925 0.292025 0.1548 0.535325 0.198705 0.58135 0.21139 0.220525 0.5028025 0.247 0.703665 0.2477 0.078895 0.00025 0.1536075 -0.0039 0.2194675 -0.007575 0.408165 -0.02255 0.6891775 -0.181725 0.8868225 -0.283125" stroke-width="0.25"></path>
  <path fill="#5e3108" d="M1.37593 11.3186c-0.0312475 0.023625 -0.08218 0.073725 -0.1083175 0.1005l-0.072685 0.081275c-0.128855 0.16185 -0.2207875 0.473825 -0.151 0.55785 0.0357925 0.04315 0.0545925 0.04785 0.067405 0.05645 0.1789075 0.086525 0.3421725 0.2053 0.609025 0.220925l0.2219475 -0.00025c0.01797 -0.00075 0.0443575 -0.001825 0.063315 -0.00325 0.0494775 -0.00445 0.027885 -0.00485 0.06203 -0.0085 0.307025 -0.0504 0.7159 -0.267625 0.700125 -0.571675 -0.006025 -0.11365 -0.1358 -0.29975 -0.2239 -0.3837 -0.093685 -0.089375 -0.2687625 -0.17615 -0.3146325 -0.192525 -0.0214675 -0.00665 -0.047125 -0.0154 -0.0899375 -0.022925 -0.022575 -0.004 -0.0448075 -0.00755 -0.0669225 -0.0101 -0.010535 -0.001375 -0.02109 -0.002375 -0.0316425 -0.0034 -0.0106525 -0.001 -0.02117 -0.001575 -0.0317075 -0.002225 -0.2229125 -0.013875 -0.42297 0.044225 -0.5771575 0.142475 -0.012795 0.00815 -0.0253925 0.0165 -0.0375325 0.0252 -0.006285 0.0046 -0.0124 0.009025 -0.018515 0.013775" stroke-width="0.25"></path>
</svg>